HIERARCHY
ROOT Hips
{
  OFFSET 90.7885 88.945 -76.2838
  CHANNELS 6 Xposition Yposition Zposition Zrotation Xrotation Yrotation
  JOINT LeftUpLeg
  {
    OFFSET 8.64259 1.95398 -2.38835
    CHANNELS 3 Zrotation Xrotation Yrotation
    JOINT LeftLeg
    {
      OFFSET 43.7702 0 0
      CHANNELS 3 Zrotation Xrotation Yrotation
      JOINT LeftFoot
      {
        OFFSET 40.6238 0 0
        CHANNELS 3 Zrotation Xrotation Yrotation
        JOINT LeftToeBase
        {
          OFFSET 12.7242 0 0
          CHANNELS 3 Zrotation Xrotation Yrotation
          End Site
          {
            OFFSET 0 0 0
          }
        }
      }
    }
  }
  JOINT RightUpLeg
  {
    OFFSET -8.2249 1.95398 -2.59336
    CHANNELS 3 Zrotation Xrotation Yrotation
    JOINT RightLeg
    {
      OFFSET 43.5653 0 0
      CHANNELS 3 Zrotation Xrotation Yrotation
      JOINT RightFoot
      {
        OFFSET 40.6238 0 0
        CHANNELS 3 Zrotation Xrotation Yrotation
        JOINT RightToeBase
        {
          OFFSET 12.7242 0 0
          CHANNELS 3 Zrotation Xrotation Yrotation
          End Site
          {
            OFFSET 0 0 0
          }
        }
      }
    }
  }
  JOINT Spine
  {
    OFFSET 0.165834 0.87714 6.61349
    CHANNELS 3 Zrotation Xrotation Yrotation
    JOINT Spine1
    {
      OFFSET 7.38963 1.71661e-005 0
      CHANNELS 3 Zrotation Xrotation Yrotation
      JOINT Spine2
      {
        OFFSET 11.9445 1.14441e-005 0
        CHANNELS 3 Zrotation Xrotation Yrotation
        JOINT Spine3
        {
          OFFSET 14.7254 4.19617e-005 0
          CHANNELS 3 Zrotation Xrotation Yrotation
          JOINT Spine4
          {
            OFFSET 10.9679 0 0
            CHANNELS 3 Zrotation Xrotation Yrotation
            JOINT RightShoulder
            {
              OFFSET 2.46616 -1.6653 3.69651
              CHANNELS 3 Zrotation Xrotation Yrotation
              JOINT RightArm
              {
                OFFSET 13.0012 0 0
                CHANNELS 3 Zrotation Xrotation Yrotation
                JOINT RightForeArm
                {
                  OFFSET 28.7848 1.52588e-005 0
                  CHANNELS 3 Zrotation Xrotation Yrotation
                  JOINT RightHand
                  {
                    OFFSET 26.5688 1.52588e-005 0
                    CHANNELS 3 Zrotation Xrotation Yrotation
                    End Site
                    {
                      OFFSET 0 0 0
                    }
                  }
                }
              }
            }
            JOINT LeftShoulder
            {
              OFFSET 2.38034 -1.29275 -3.7523
              CHANNELS 3 Zrotation Xrotation Yrotation
              JOINT LeftArm
              {
                OFFSET 16.3182 6.10352e-005 0
                CHANNELS 3 Zrotation Xrotation Yrotation
                JOINT LeftForeArm
                {
                  OFFSET 27.0901 0 0
                  CHANNELS 3 Zrotation Xrotation Yrotation
                  JOINT LeftHand
                  {
                    OFFSET 24.5451 1.52588e-005 0
                    CHANNELS 3 Zrotation Xrotation Yrotation
                    End Site
                    {
                      OFFSET 0 0 0
                    }
                  }
                }
              }
            }
            JOINT Neck
            {
              OFFSET 5.0226 -0.0266342 0
              CHANNELS 3 Zrotation Xrotation Yrotation
              JOINT Head
              {
                OFFSET 6.69363 2.86102e-005 0
                CHANNELS 3 Zrotation Xrotation Yrotation
                End Site
                {
                  OFFSET 0 0 0
                }
              }
            }
          }
        }
      }
    }
  }
}
MOTION
Frames:	15
Frame Time:	0.0416667
173.383 101.642 -180.138 97.4258 -43.4838 96.7839 -174.927 1.39357 93.5973 -18.7596 14.8979 -0.958402 73.3624 5.88494 -1.1152 15.4937 -3.82206 6.50374 170.985 -2.45392 89.4361 -11.3679 0.421634 0.230871 67.8846 -5.04541 1.04532 21.7983 -0.263719 1.9853 0.348998 7.6105 -89.3355 11.6461 1.00577 1.21969 -0.0250179 1.05849 1.17424 -22.5569 0.592722 1.46553 -2.54426 0.592753 1.46554 89.6524 -30.261 -107.345 45.0102 -15.6665 -1.12567 4.37387 -23.9694 -16.1882 -23.6518 -0.28931 -9.93642 -86.3544 -48.9052 84.0282 -23.5366 19.2987 -9.85898 3.50328 -0.958353 -13.8406 -1.41467 -0.107769 -6.43259 1.47204 -10.9424 -14.2117 -2.4366 -8.63341 -3.86736 
172.275 101.112 -179.815 95.9996 -43.8289 97.7561 -173.128 5.91826 96.9103 -23.7711 16.8988 -2.04709 75.1054 6.48054 -1.68669 14.0359 -2.53713 5.11946 170.788 3.68189 91.5405 -20.7453 -1.31422 1.64684 69.3378 -5.70704 0.444713 22.7579 -0.508488 2.324 0.385771 7.6827 -89.3025 11.5008 1.09352 1.27774 -0.170299 1.14869 1.22838 -22.702 0.659018 1.54727 -2.68938 0.658998 1.54726 89.5063 -29.7102 -107.849 44.9262 -15.1657 -1.27968 3.7149 -23.0433 -16.6447 -25.7469 -0.0609461 -10.5027 -86.3917 -49.1693 84.0127 -22.1482 18.6324 -8.42705 3.51411 -1.2943 -13.3049 -1.77697 -0.102251 -6.456 6.45108 -11.3095 -16.823 -3.55715 -7.77625 -4.30478 
171.222 101.204 -179.448 94.6717 -43.2168 99.2249 -171.847 8.91832 100.296 -25.5707 19.7399 -2.18825 75.0283 6.67789 -1.54635 16.2431 -3.04429 5.53948 167.176 7.96013 90.1578 -22.0836 -2.4208 4.38368 63.8967 -2.74758 -0.289184 27.3511 -1.82444 4.52681 0.293039 7.80069 -89.3493 11.266 0.886167 1.20715 -0.405169 0.938418 1.16697 -22.9367 0.482438 1.41762 -2.92406 0.482435 1.41762 88.5407 -30.5094 -109.426 44.2258 -13.3885 -0.559692 2.62282 -22.1774 -17.8392 -24.8199 -0.0678742 -10.4028 -86.8179 -48.2656 83.2148 -20.8909 18.9658 -7.71721 2.5982 -3.37638 -10.8252 -0.612629 -0.126463 -6.89564 10.339 -12.2818 -19.0924 -4.41928 -7.55911 -4.52618 
170.51 101.526 -179.026 93.2393 -41.1649 100.212 -171.14 11.1943 102.461 -26.2567 22.1739 -1.23932 74.7673 6.71202 -2.38951 15.4289 -3.34658 5.95324 165.722 10.3762 84.3199 -20.1484 1.68873 3.58054 60.351 -1.10318 0.122743 28.0699 -1.77266 4.27964 0.365784 7.80534 -89.5352 11.259 0.944287 0.832447 -0.411879 0.980004 0.790075 -22.9464 0.650459 1.07774 -2.93373 0.650447 1.07774 89.3657 -30.1155 -107.967 44.9665 -13.989 1.02317 2.73281 -22.3682 -18.1928 -23.9071 -0.149192 -10.1665 -86.2833 -46.7711 83.7979 -20.9892 18.7627 -7.0245 2.57573 -4.6034 -11.8999 -0.48764 -0.133621 -7.02476 10.0865 -13.9202 -21.3195 -4.12013 -8.75567 -3.01097 
169.706 101.279 -177.979 92.6641 -39.0129 102.167 -169.854 14.7151 105.591 -30.018 26.3209 -0.345304 75.9377 7.30726 -3.02703 14.9748 -4.08734 6.83944 166.088 11.0722 77.4173 -20.682 -5.14774 -0.731411 62.9726 -2.04548 -0.916247 23.9185 -0.90161 2.95127 0.534804 7.75974 -89.8882 11.3543 1.11641 0.110821 -0.316175 1.12018 0.0615612 -22.8547 1.03148 0.441263 -2.84206 1.03147 0.441253 90.1145 -29.2136 -106.834 44.794 -10.6479 3.42572 2.48363 -19.5711 -18.5652 -23.4599 0.949636 -15.6618 -85.6301 -45.8507 84.6784 -19.5259 18.6194 -6.3443 2.43856 -5.78669 -13.0216 -0.388522 -0.139954 -7.22417 5.48423 -14.3309 -23.1878 -2.03473 -9.77679 -3.13033 
168.564 100.352 -175.954 92.4786 -37.19 104.436 -168.869 18.6168 109.527 -35.2817 30.6052 1.11337 78.1815 8.24858 -3.05212 16.4239 -3.52003 6.09875 165.307 10.0297 72.2442 -21.5252 -13.195 -3.31707 62.5625 -1.52521 -0.128165 24.409 -0.946103 2.96942 0.573327 7.76306 -90.2675 11.3495 1.01622 -0.634235 -0.321237 0.987327 -0.678359 -22.8591 1.15983 -0.299469 -2.84648 1.15984 -0.299467 90.4572 -28.4347 -106.444 43.1888 -9.17163 5.52027 2.01452 -20.4827 -18.5236 -22.2908 -0.407712 -8.27171 -84.7591 -44.7244 85.9012 -18.5323 15.924 -3.75897 3.56505 -4.7254 -13.9708 -0.78827 -0.128708 -7.18955 3.68586 -14.9067 -26.051 -2.47229 -10.2297 -2.67418 
165.98 98.4254 -173.642 90.8427 -36.6818 105.485 -169.957 25.3156 113.328 -43.3692 32.2572 3.60371 80.9442 9.31383 -3.88034 17.7797 -3.0755 5.46853 165.183 11.5441 70.2195 -23.7199 -19.1085 -4.05673 62.4929 -1.3915 0.0951669 24.5752 -0.985906 3.02796 0.589621 7.68374 -90.5992 11.5126 0.892861 -1.28518 -0.158692 0.83543 -1.32323 -22.6934 1.23781 -0.957443 -2.68073 1.23782 -0.95745 91.8055 -27.2058 -104.122 41.5846 -9.67763 6.40485 1.96694 -20.2401 -19.7849 -23.4214 0.101316 -11.0172 -84.4695 -42.1307 86.0022 -18.5392 14.3426 -1.02193 4.19315 -4.43309 -14.2342 -1.18815 -0.11546 -7.03952 4.48065 -16.1424 -29.1365 -3.30771 -10.7079 -1.75388 
162.296 95.8132 -170.517 89.3204 -35.71 106.447 -172.492 32.2572 118.32 -51.3948 33.9598 6.62891 83.7403 10.306 -4.87104 18.3962 -2.2887 4.44543 165.603 11.6352 70.8288 -24.615 -23.3795 -4.27428 61.8562 -1.22804 1.38595 23.769 -0.734323 2.62647 0.434849 7.56276 -90.9394 11.7484 0.423762 -1.91678 0.0761169 0.339003 -1.93359 -22.4502 0.980155 -1.70093 -2.43753 0.980166 -1.70093 92.1349 -28.0562 -103.148 39.4087 -6.96836 8.64287 0.451737 -20.0389 -21.5772 -23.2009 0.201259 -11.6169 -84.9174 -39.7551 84.8875 -18.4033 14.5652 0.39088 3.93612 -4.42662 -12.3967 -0.601589 -0.116877 -6.05086 3.70605 -17.3559 -33.0722 -3.76621 -11.4454 -0.748387 
157.929 92.6861 -166.889 90.4217 -36.4867 106.045 -174.407 35.1982 121.816 -57.0259 33.544 8.55893 85.7927 10.8645 -6.11708 22.6084 -4.8255 7.4143 166.997 12.8462 70.5151 -28.5744 -28.2014 -6.07323 58.1631 0.143865 2.69818 25.6514 -0.490983 1.77456 0.272943 7.65047 -90.9528 11.5699 0.0969941 -1.90849 -0.102485 0.0129306 -1.91093 -22.6275 0.665995 -1.79118 -2.6148 0.666 -1.79119 92.1186 -29.4851 -102.703 38.3976 -4.63387 9.88371 -0.701499 -18.5909 -23.1844 -23.6521 0.136866 -10.7057 -85.2933 -39.1418 84.1428 -16.6894 14.6667 -1.28078 3.63007 -4.68493 -9.64187 -0.1722 -0.119654 -5.88639 0.489689 -16.6331 -35.5431 -1.84366 -11.3539 -0.451513 
152.855 89.3835 -162.222 93.5256 -38.8078 104.913 -174.826 33.5509 124.052 -58.3271 31.6377 9.77308 87.7614 11.1613 -7.51461 27.6572 -7.09677 10.5177 169.546 14.0229 70.1769 -35.8159 -33.5483 -8.62356 56.3391 0.784856 2.70479 29.393 -0.238165 0.103462 0.110718 7.76119 -90.9886 11.3454 -0.240503 -1.94489 -0.326918 -0.325875 -1.93244 -22.8506 0.355012 -1.92728 -2.83798 0.355009 -1.92729 92.2073 -29.2176 -102.609 37.9255 -3.89549 12.1851 -2.5395 -21.8683 -24.8087 -23.1604 0.0950848 -11.7572 -85.3199 -40.8487 84.3811 -16.9807 12.853 -1.44031 3.81713 -7.78253 -12.6277 0.854061 -0.153111 -6.6764 -2.15518 -15.0875 -31.0949 -2.56483 -11.2248 -1.24774 
146.636 86.7404 -155.596 98.9606 -42.802 104.892 -172.241 26.9587 126.642 -52.8524 31.4969 10.2061 84.9264 9.93072 -6.99926 34.1964 -8.63009 13.251 169.864 13.2705 69.0734 -41.1798 -30.5765 -8.31262 65.5162 -3.28182 2.71107 46.1906 0.151181 -6.8474 0.00274247 7.99043 -91.1029 10.8827 -0.504277 -2.14757 -0.789868 -0.598289 -2.12332 -23.3107 0.164276 -2.19983 -3.2981 0.164293 -2.19983 92.842 -28.4281 -101.568 37.1016 -4.28684 13.146 -3.77791 -23.8286 -25.7491 -25.2058 -0.287721 -9.98133 -84.4193 -43.2575 86.2485 -18.9328 11.52 -0.177259 4.2462 -8.04918 -17.6242 0.595082 -0.185618 -7.99765 -2.21503 -12.4407 -21.1368 -5.93524 -9.82912 0.121501 
139.056 88.2859 -147.521 105.325 -46.7574 105.889 -167.173 18.5439 128.541 -38.666 38.19 9.09835 61.6878 1.65228 -4.67594 41.4661 -7.19559 10.7058 168.747 13.8726 69.4 -47.3617 -33.5375 -6.92679 74.3274 -7.48443 2.29218 43.6926 -0.114936 -4.80155 -0.243983 8.22967 -90.8725 10.4053 -0.885716 -1.65344 -1.26638 -0.95764 -1.61287 -23.7936 -0.347957 -1.84313 -3.78099 -0.347941 -1.84312 92.7933 -28.5207 -101.638 37.1982 -4.47778 9.21731 0.539054 -20.4584 -18.3294 -29.423 -0.160425 -8.79258 -84.069 -44.5957 86.9935 -22.3565 7.01816 5.64925 6.61317 -5.06646 -23.0951 -0.144191 -0.16927 -8.37129 -8.83042 -7.07063 -11.5384 -6.22336 -6.21712 -2.68408 
131.688 91.8129 -141.119 105.096 -48.186 101.072 -170.271 17.1563 122.613 -38.3099 30.7959 8.96766 59.2924 0.852328 0.902713 13.5156 -2.51431 5.13627 168.757 11.8702 71.3147 -44.4126 -31.5921 -6.52803 79.4351 -10.1437 2.30429 39.148 -0.338143 -2.09907 -0.317495 8.07745 -90.4185 10.7157 -0.824994 -0.756438 -0.955167 -0.857493 -0.719407 -23.4897 -0.559545 -0.96941 -3.47703 -0.559531 -0.969405 92.9921 -27.5399 -101.536 40.3074 -3.82617 7.86702 2.4649 -14.5715 -16.1963 -30.3197 0.165492 -8.639 -83.8033 -46.2641 87.622 -22.5592 6.76122 6.98786 8.21433 -1.74724 -25.0982 1.55115 -0.178225 -6.92965 -14.4987 -5.01159 -6.93988 -7.26669 -4.92511 -0.932856 
126.512 94.7125 -137.513 104.18 -48.9699 97.5485 -168.249 18.2598 114.141 -40.6605 5.25942 0.236288 71.6939 5.74665 0.522529 16.341 1.84722 -0.203962 166.659 11.379 71.8061 -39.1923 -34.476 -4.64918 76.5475 -8.3446 2.31858 40.1876 -0.896886 -0.699534 -0.0177091 8.03516 -90.4229 10.802 -0.230403 -0.81945 -0.869186 -0.266244 -0.808526 -23.4023 0.0265108 -0.850808 -3.38968 0.0265167 -0.850817 93.763 -25.1937 -100.639 40.1827 -6.20458 6.93042 2.98603 -17.6588 -16.908 -29.5075 0.359569 -10.2944 -83.7718 -47.0235 87.7605 -23.7333 6.93809 6.01853 9.00737 -0.22606 -25.6576 -1.90984 -0.10802 -8.26581 -17.6039 -4.513 -2.62825 -6.93704 -4.65467 0.844876 
122.3 97.0808 -135.268 103.132 -47.5311 94.9493 -167.352 19.9007 103.592 -47.1372 -2.26512 -4.12877 73.2459 6.16817 -0.529544 17.9555 0.407909 1.18323 167.002 9.02902 74.147 -34.5227 -31.1031 -4.23519 74.2565 -7.35861 1.38907 36.8763 -1.11581 0.928856 -0.0336771 8.14797 -90.4825 10.576 -0.288852 -0.933287 -1.09525 -0.329645 -0.919674 -23.6277 0.00497169 -0.976945 -3.61507 0.00498359 -0.976948 94.1725 -24.3649 -100.002 38.0451 -5.2154 5.16324 0.620923 -18.2119 -20.6276 -29.234 0.408836 -10.7213 -83.8253 -46.0223 87.5573 -22.7675 8.11488 7.44131 9.80621 0.58355 -29.8375 -0.434026 -0.146956 -7.66111 -18.5997 -3.82134 -0.0968891 -6.749 -3.95397 1.89574 
